<svg width="48" height="48" viewBox="0 0 48 48" fill="none" xmlns="http://www.w3.org/2000/svg">
<path d="M33.7238 10.5348C33.5432 8.07932 32.4404 5.78307 30.6367 4.10716C28.833 2.43124 26.4621 1.49976 24 1.49976C21.5379 1.49976 19.167 2.43124 17.3633 4.10716C15.5596 5.78307 14.4568 8.07932 14.2762 10.5348C12.422 10.7171 10.7018 11.582 9.44951 12.9616C8.19727 14.3412 7.50245 16.1369 7.5 18.0001C7.5 21.6901 9.97219 24.6779 13.3481 25.3557C13.3915 25.3641 13.4304 25.3875 13.4582 25.4218C13.486 25.4561 13.5008 25.4991 13.5 25.5432V29.1835C13.5 31.231 15.1125 32.9542 17.1562 33.0029C17.6565 33.0154 18.1543 32.9277 18.6201 32.7448C19.086 32.562 19.5105 32.2877 19.8687 31.9383C20.2269 31.5888 20.5116 31.1712 20.7059 30.71C20.9001 30.2488 21.0002 29.7534 21 29.2529V24.7679C21.0001 24.7375 21.0076 24.7076 21.0218 24.6807C21.036 24.6539 21.0566 24.6308 21.0817 24.6137C21.1068 24.5965 21.1356 24.5857 21.1658 24.5822C21.196 24.5787 21.2266 24.5826 21.255 24.5935C22.1307 24.934 23.0605 25.1141 24 25.1251C25.4671 25.115 26.8782 24.5608 27.96 23.5698C27.9948 23.5371 28.0407 23.5189 28.0884 23.5189C28.1362 23.5189 28.1821 23.5371 28.2169 23.5698C29.5072 24.7989 31.218 25.4893 33 25.5001C34.927 25.5009 36.7803 24.7601 38.1757 23.4311C39.5711 22.1021 40.4014 20.2871 40.4945 18.3624C40.5876 16.4377 39.9363 14.551 38.6757 13.0936C37.415 11.6362 35.6418 10.7199 33.7238 10.5348Z" fill="#1A1A1A"/>
<path d="M24 28.125V29.25C23.9977 30.8149 23.4523 32.3306 22.4571 33.5383C21.4619 34.746 20.0785 35.571 18.5428 35.8725L24 46.5L32.6307 28.4925C31.0064 28.4302 29.4226 27.9677 28.02 27.1462C26.777 27.7877 25.3988 28.1233 24 28.125Z" fill="#1A1A1A"/>
</svg>
