<svg width="32" height="32" viewBox="0 0 32 32" fill="none" xmlns="http://www.w3.org/2000/svg">
<rect width="32" height="32" rx="8" fill="#EE4343"/>
<path fill-rule="evenodd" clip-rule="evenodd" d="M16 7C14.6705 7 13.12 7.03032 11.6086 7.07146L11.5472 7.07363C10.0089 7.11585 8.76763 7.14942 7.78977 7.30641C6.7706 7.46991 5.92447 7.78282 5.248 8.45736C4.5693 9.13407 4.27349 9.97102 4.13395 10.9725C4 11.9362 4 13.1575 4 14.6755V16.3256C4 17.8414 4 19.0627 4.13395 20.0274C4.27237 21.029 4.5693 21.8659 5.248 22.5426C5.92447 23.2183 6.7706 23.5301 7.78977 23.6936C8.76763 23.8506 10.0089 23.8841 11.5472 23.9264L11.6086 23.9285C13.1211 23.9697 14.6705 24 16 24C17.3295 24 18.88 23.9697 20.3914 23.9285L20.4528 23.9264C21.9911 23.8841 23.2324 23.8506 24.2102 23.6936C25.2294 23.5301 26.0755 23.2172 26.752 22.5426C27.4307 21.8659 27.7276 21.029 27.866 20.0274C28 19.0638 28 17.8425 28 16.3245V14.6744C28 13.1575 28 11.9362 27.866 10.9725C27.7276 9.97102 27.4307 9.13407 26.752 8.45736C26.0755 7.78173 25.2294 7.46991 24.2102 7.30641C23.2324 7.14942 21.9911 7.11585 20.4517 7.07363L20.3914 7.07146C18.928 7.02838 17.4641 7.00455 16 7ZM14.7408 18.3698C14.6135 18.4403 14.4694 18.4772 14.3228 18.4767C14.1761 18.4762 14.0322 18.4384 13.9054 18.367C13.7786 18.2957 13.6733 18.1933 13.6002 18.07C13.527 17.9468 13.4884 17.8071 13.4884 17.6649V13.334C13.4884 13.1918 13.527 13.0521 13.6002 12.9289C13.6733 12.8057 13.7786 12.7032 13.9054 12.6319C14.0322 12.5605 14.1761 12.5227 14.3228 12.5222C14.4694 12.5217 14.6135 12.5586 14.7408 12.6291L18.6478 14.7946C18.7759 14.8657 18.8823 14.9683 18.9563 15.092C19.0303 15.2158 19.0693 15.3564 19.0693 15.4995C19.0693 15.6425 19.0303 15.7831 18.9563 15.9069C18.8823 16.0307 18.7759 16.1333 18.6478 16.2043L14.7408 18.3698Z" fill="black"/>
</svg>
