<svg width="32" height="32" viewBox="0 0 32 32" fill="none" xmlns="http://www.w3.org/2000/svg">
<rect width="32" height="32" rx="8" fill="#AB70DB"/>
<path d="M17.1308 5C18.3682 5.0033 18.9963 5.0099 19.5386 5.0253L19.752 5.033C19.9984 5.0418 20.2415 5.0528 20.5351 5.066C21.7055 5.121 22.504 5.30579 23.2047 5.57749C23.9307 5.85688 24.5422 6.23527 25.1538 6.84576C25.7133 7.39545 26.1462 8.06065 26.422 8.79491C26.6937 9.49559 26.8785 10.2942 26.9335 11.4656C26.9467 11.7582 26.9577 12.0013 26.9665 12.2488L26.9731 12.4622C26.9896 13.0034 26.9962 13.6315 26.9984 14.869L26.9995 15.6895V17.1305C27.0022 17.9328 26.9938 18.7352 26.9742 19.5372L26.9676 19.7506C26.9588 19.9981 26.9478 20.2412 26.9346 20.5338C26.8796 21.7053 26.6926 22.5028 26.422 23.2046C26.1462 23.9388 25.7133 24.604 25.1538 25.1537C24.6041 25.7133 23.9389 26.1461 23.2047 26.422C22.504 26.6937 21.7055 26.8785 20.5351 26.9335L19.752 26.9665L19.5386 26.9731C18.9963 26.9885 18.3682 26.9962 17.1308 26.9984L16.3103 26.9995H14.8704C14.0678 27.0023 13.2651 26.9939 12.4626 26.9742L12.2493 26.9676C11.9881 26.9577 11.7271 26.9463 11.4661 26.9335C10.2958 26.8785 9.4972 26.6937 8.79543 26.422C8.06158 26.1459 7.39679 25.7131 6.84743 25.1537C6.2875 24.6041 5.8543 23.9389 5.5781 23.2046C5.30641 22.5039 5.12162 21.7053 5.06662 20.5338L5.03362 19.7506L5.02812 19.5372C5.00785 18.7352 4.99868 17.9328 5.00063 17.1305V14.869C4.99758 14.0666 5.00565 13.2643 5.02482 12.4622L5.03252 12.2488C5.04132 12.0013 5.05232 11.7582 5.06552 11.4656C5.12052 10.2942 5.30531 9.49669 5.577 8.79491C5.85385 8.06034 6.28781 7.39512 6.84853 6.84576C7.39757 6.28647 8.06198 5.85366 8.79543 5.57749C9.4972 5.30579 10.2947 5.121 11.4661 5.066C11.7587 5.0528 12.0029 5.0418 12.2493 5.033L12.4626 5.0264C13.2647 5.00686 14.067 4.99842 14.8693 5.0011L17.1308 5ZM16.0001 10.4999C14.5415 10.4999 13.1426 11.0793 12.1112 12.1107C11.0798 13.1422 10.5003 14.5411 10.5003 15.9997C10.5003 17.4584 11.0798 18.8573 12.1112 19.8887C13.1426 20.9202 14.5415 21.4996 16.0001 21.4996C17.4587 21.4996 18.8576 20.9202 19.889 19.8887C20.9204 18.8573 21.4998 17.4584 21.4998 15.9997C21.4998 14.5411 20.9204 13.1422 19.889 12.1107C18.8576 11.0793 17.4587 10.4999 16.0001 10.4999ZM16.0001 12.6998C16.4334 12.6997 16.8625 12.785 17.2629 12.9508C17.6633 13.1166 18.0271 13.3596 18.3336 13.6659C18.64 13.9723 18.8832 14.3361 19.0491 14.7364C19.215 15.1367 19.3004 15.5658 19.3005 15.9992C19.3005 16.4325 19.2152 16.8617 19.0495 17.2621C18.8837 17.6624 18.6407 18.0263 18.3343 18.3327C18.028 18.6392 17.6642 18.8823 17.2639 19.0483C16.8636 19.2142 16.4345 19.2996 16.0012 19.2997C15.126 19.2997 14.2867 18.952 13.6678 18.3331C13.049 17.7143 12.7013 16.8749 12.7013 15.9997C12.7013 15.1245 13.049 14.2852 13.6678 13.6663C14.2867 13.0475 15.126 12.6998 16.0012 12.6998M21.7759 8.84991C21.4112 8.84991 21.0615 8.99477 20.8037 9.25262C20.5458 9.51048 20.4009 9.86021 20.4009 10.2249C20.4009 10.5895 20.5458 10.9393 20.8037 11.1971C21.0615 11.455 21.4112 11.5998 21.7759 11.5998C22.1405 11.5998 22.4903 11.455 22.7481 11.1971C23.006 10.9393 23.1508 10.5895 23.1508 10.2249C23.1508 9.86021 23.006 9.51048 22.7481 9.25262C22.4903 8.99477 22.1405 8.84991 21.7759 8.84991Z" fill="black"/>
</svg>
