<svg width="14" height="14" viewBox="0 0 14 14" fill="none" xmlns="http://www.w3.org/2000/svg">
<path fill-rule="evenodd" clip-rule="evenodd" d="M3.06246 5.86536V4.66662C3.06246 2.492 4.82533 0.729126 6.99995 0.729126C9.17456 0.729126 10.9374 2.492 10.9374 4.66662V5.86536C11.5879 5.91378 12.0108 6.03628 12.3205 6.34603C12.8333 6.85819 12.8333 7.68361 12.8333 9.33327C12.8333 10.9829 12.8333 11.8083 12.3205 12.3205C11.8084 12.8333 10.9829 12.8333 9.33327 12.8333H4.66662C3.01696 12.8333 2.19154 12.8333 1.67937 12.3205C1.16663 11.8083 1.16663 10.9829 1.16663 9.33327C1.16663 7.68361 1.16663 6.85819 1.67937 6.34603C1.98854 6.03628 2.41204 5.91378 3.06246 5.86536ZM3.93745 4.66662C3.93745 2.97525 5.30858 1.60412 6.99995 1.60412C8.69131 1.60412 10.0624 2.97525 10.0624 4.66662V5.83561C9.83922 5.83367 9.59616 5.83289 9.33327 5.83328H4.66662C4.40334 5.83289 4.16029 5.83367 3.93745 5.83561V4.66662ZM4.66662 9.9166C4.98878 9.9166 5.24995 9.65544 5.24995 9.33327C5.24995 9.01111 4.98878 8.74994 4.66662 8.74994C4.34445 8.74994 4.08329 9.01111 4.08329 9.33327C4.08329 9.65544 4.34445 9.9166 4.66662 9.9166ZM6.99995 9.9166C7.32211 9.9166 7.58328 9.65544 7.58328 9.33327C7.58328 9.01111 7.32211 8.74994 6.99995 8.74994C6.67778 8.74994 6.41661 9.01111 6.41661 9.33327C6.41661 9.65544 6.67778 9.9166 6.99995 9.9166ZM9.91661 9.33327C9.91661 9.65544 9.65544 9.9166 9.33327 9.9166C9.01111 9.9166 8.74994 9.65544 8.74994 9.33327C8.74994 9.01111 9.01111 8.74994 9.33327 8.74994C9.65544 8.74994 9.91661 9.01111 9.91661 9.33327Z" fill="#FF6B35"/>
</svg>
