<svg width="32" height="32" viewBox="0 0 32 32" fill="none" xmlns="http://www.w3.org/2000/svg">
<rect width="32" height="32" rx="8" fill="#FADB69"/>
<path fill-rule="evenodd" clip-rule="evenodd" d="M10.5521 5.36667C12.3024 5.17111 14.1292 5 16 5C17.8708 5 19.6976 5.17111 21.4479 5.36667C22.7781 5.5192 24.0173 6.11853 24.9628 7.06667C25.9083 8.01481 26.5041 9.25567 26.6529 10.5864C26.8403 12.3284 27 14.1422 27 16C27 17.8578 26.8403 19.6716 26.6529 21.4136C26.5041 22.7443 25.9083 23.9852 24.9628 24.9333C24.0173 25.8815 22.7781 26.4808 21.4479 26.6333C19.6976 26.8289 17.8708 27 16 27C14.1292 27 12.3024 26.8289 10.5521 26.6333C9.22187 26.4808 7.9827 25.8815 7.03722 24.9333C6.09174 23.9852 5.4959 22.7443 5.34711 21.4136C5.1597 19.6716 5 17.8578 5 16C5 14.1422 5.1597 12.3284 5.34711 10.5864C5.4959 9.25567 6.09174 8.01481 7.03722 7.06667C7.9827 6.11853 9.22187 5.5192 10.5521 5.36667ZM18.1707 9.28919C18.1144 9.04535 17.9703 8.83076 17.766 8.68635C17.5616 8.54194 17.3112 8.47783 17.0626 8.50623C16.814 8.53464 16.5845 8.65359 16.418 8.84037C16.2514 9.02716 16.1595 9.26872 16.1597 9.51896V18.9333C16.1597 19.4336 16.0114 19.9226 15.7335 20.3385C15.4555 20.7544 15.0605 21.0786 14.5984 21.27C14.1362 21.4614 13.6277 21.5115 13.1371 21.4139C12.6465 21.3163 12.1958 21.0754 11.8421 20.7217C11.4884 20.368 11.2475 19.9174 11.1499 19.4268C11.0523 18.9361 11.1024 18.4276 11.2939 17.9655C11.4853 17.5033 11.8095 17.1083 12.2254 16.8304C12.6413 16.5525 13.1303 16.4041 13.6305 16.4041C13.9006 16.4041 14.1597 16.2968 14.3507 16.1058C14.5417 15.9148 14.649 15.6558 14.649 15.3856C14.649 15.1155 14.5417 14.8564 14.3507 14.6654C14.1597 14.4744 13.9006 14.3671 13.6305 14.3671C12.7274 14.3671 11.8446 14.6349 11.0937 15.1367C10.3428 15.6384 9.75749 16.3515 9.41188 17.1859C9.06627 18.0203 8.97585 18.9384 9.15203 19.8242C9.32822 20.7099 9.76311 21.5235 10.4017 22.1621C11.0403 22.8007 11.8539 23.2356 12.7397 23.4118C13.6255 23.588 14.5436 23.4976 15.3779 23.152C16.2123 22.8064 16.9255 22.2211 17.4272 21.4702C17.9289 20.7193 18.1967 19.8364 18.1967 18.9333V13.2459C19.1745 14.077 20.4359 14.5333 21.9156 14.5333C22.1857 14.5333 22.4447 14.426 22.6358 14.235C22.8268 14.044 22.9341 13.7849 22.9341 13.5148C22.9341 13.2447 22.8268 12.9856 22.6358 12.7946C22.4447 12.6036 22.1857 12.4963 21.9156 12.4963C20.84 12.4963 20.0415 12.1639 19.4532 11.6407C18.8535 11.1062 18.4086 10.311 18.1707 9.28919Z" fill="black"/>
</svg>
