<svg width="16" height="16" viewBox="0 0 16 16" fill="none" xmlns="http://www.w3.org/2000/svg">
<path fill-rule="evenodd" clip-rule="evenodd" d="M1.33333 8.00006C1.33333 5.48607 1.33333 4.22874 2.11466 3.44808C2.89599 2.66741 4.15265 2.66675 6.66664 2.66675H7.66664C10.1806 2.66675 11.438 2.66675 12.2186 3.44808C12.848 4.07674 12.97 5.01341 12.994 6.66673H13.3333C13.9619 6.66673 14.2759 6.66673 14.4713 6.86207C14.6666 7.0574 14.6666 7.3714 14.6666 8.00006C14.6666 8.62873 14.6666 8.94272 14.4713 9.13806C14.2759 9.33339 13.9619 9.33339 13.3333 9.33339H12.994C12.97 10.9867 12.8473 11.9234 12.2186 12.552C11.438 13.3334 10.1806 13.3334 7.66664 13.3334H6.66664C4.15265 13.3334 2.89532 13.3334 2.11466 12.552C1.33399 11.7707 1.33333 10.5141 1.33333 8.00006ZM7.98664 5.61607C8.19864 5.79284 8.22728 6.10797 8.05064 6.32007L7.06731 7.50006H8.3333C8.52725 7.50014 8.70367 7.61237 8.78592 7.78801C8.86818 7.96366 8.84143 8.17103 8.7173 8.32006L7.05064 10.3201C6.8719 10.5244 6.56278 10.5487 6.35423 10.3749C6.14569 10.2012 6.11391 9.89271 6.28264 9.68005L7.26597 8.50006H5.99998C5.80602 8.49999 5.62961 8.38775 5.54736 8.21211C5.4651 8.03646 5.49185 7.82909 5.61598 7.68006L7.28264 5.68007C7.45941 5.46807 7.77453 5.43942 7.98664 5.61607Z" fill="#00E5A0"/>
</svg>
