<svg width="48" height="48" viewBox="0 0 48 48" fill="none" xmlns="http://www.w3.org/2000/svg">
<path d="M27.14 20.4733C28.0096 19.6022 28.4444 18.5555 28.4444 17.3333C28.4444 16.1111 28.0096 15.0652 27.14 14.1955C26.2704 13.3259 25.2237 12.8904 24 12.8889C22.7763 12.8874 21.7304 13.323 20.8622 14.1955C19.9941 15.0681 19.5585 16.1141 19.5556 17.3333C19.5526 18.5526 19.9881 19.5992 20.8622 20.4733C21.7363 21.3474 22.7822 21.7822 24 21.7778C25.2178 21.7733 26.2644 21.3385 27.14 20.4733ZM12.8889 21.3333V12.8889H8.44444V15.1111C8.44444 16.5185 8.85185 17.7874 9.66667 18.9178C10.4815 20.0481 11.5556 20.8533 12.8889 21.3333ZM35.1111 21.3333C36.4444 20.8518 37.5185 20.0459 38.3333 18.9155C39.1481 17.7852 39.5556 16.517 39.5556 15.1111V12.8889H35.1111V21.3333ZM21.7778 39.5555V32.6666C19.963 32.2592 18.343 31.4911 16.9178 30.3622C15.4926 29.2333 14.4459 27.8163 13.7778 26.1111C11 25.7778 8.6763 24.5652 6.80667 22.4733C4.93704 20.3815 4.00148 17.9274 4 15.1111V12.8889C4 11.6667 4.43556 10.6207 5.30667 9.75111C6.17778 8.88148 7.2237 8.44592 8.44444 8.44444H12.8889C12.8889 7.22222 13.3244 6.17629 14.1956 5.30667C15.0667 4.43704 16.1126 4.00148 17.3333 4H30.6667C31.8889 4 32.9356 4.43556 33.8067 5.30667C34.6778 6.17778 35.1126 7.2237 35.1111 8.44444H39.5556C40.7778 8.44444 41.8244 8.88 42.6956 9.75111C43.5667 10.6222 44.0015 11.6681 44 12.8889V15.1111C44 17.9259 43.0644 20.38 41.1933 22.4733C39.3222 24.5667 36.9985 25.7792 34.2222 26.1111C33.5556 27.8148 32.5096 29.2318 31.0844 30.3622C29.6593 31.4926 28.0385 32.2607 26.2222 32.6666V39.5555H32.8889C33.5185 39.5555 34.0467 39.7689 34.4733 40.1955C34.9 40.6222 35.1126 41.1496 35.1111 41.7778C35.1096 42.4059 34.8963 42.934 34.4711 43.3622C34.0459 43.7903 33.5185 44.0029 32.8889 44H15.1111C14.4815 44 13.9541 43.7866 13.5289 43.36C13.1037 42.9333 12.8904 42.4059 12.8889 41.7778C12.8874 41.1496 13.1007 40.6222 13.5289 40.1955C13.957 39.7689 14.4844 39.5555 15.1111 39.5555H21.7778Z" fill="#FFD60A"/>
</svg>
