<svg width="32" height="32" viewBox="0 0 32 32" fill="none" xmlns="http://www.w3.org/2000/svg">
<rect width="32" height="32" rx="8" fill="#D2F6FE"/>
<path d="M18 16.0726C17.9801 16.4466 17.8942 16.8143 17.7468 17.159C17.6263 17.4216 17.4277 17.642 17.1772 17.7912C17.0091 17.8802 16.8246 17.9381 16.6347 17.9604C16.3601 18.0132 16.0776 18.0132 15.8029 17.9604C15.623 17.9125 15.4541 17.8309 15.3056 17.7199C15.216 17.642 15.1429 17.5473 15.0907 17.4413C15.0385 17.3353 15.0082 17.2202 15.0014 17.1026C14.9947 16.985 15.0117 16.8672 15.0515 16.7561C15.0913 16.6451 15.1531 16.5429 15.2333 16.4555C15.4019 16.2927 15.6107 16.176 15.8391 16.1171C16.085 16.0414 16.3409 16.0058 16.5986 16.0102C16.8337 15.9966 17.0687 15.9966 17.3038 16.0102C17.5226 16.0269 17.7396 16.0565 17.9548 16.0993L18 16.0726Z" fill="black"/>
<path d="M21.5 5H10.5C9.04131 5 7.64236 5.57946 6.61091 6.61091C5.57946 7.64236 5 9.04131 5 10.5V21.5C5 22.9587 5.57946 24.3576 6.61091 25.3891C7.64236 26.4205 9.04131 27 10.5 27H21.5C22.9587 27 24.3576 26.4205 25.3891 25.3891C26.4205 24.3576 27 22.9587 27 21.5V10.5C27 9.04131 26.4205 7.64236 25.3891 6.61091C24.3576 5.57946 22.9587 5 21.5 5ZM11.072 18.783C11.2454 19.3618 11.513 19.9082 11.864 20.4C12.3651 21.0922 13.0569 21.6235 13.855 21.929C14.3467 22.1116 14.8615 22.2304 15.384 22.281C15.8973 22.3309 16.4107 22.3309 16.924 22.281C17.5218 22.2342 18.1066 22.0815 18.651 21.83C19.2662 21.5296 19.793 21.0748 20.18 20.51C20.4123 20.178 20.5658 19.7973 20.6287 19.397C20.6916 18.9967 20.6623 18.5873 20.543 18.2C20.3978 17.7103 20.0866 17.2864 19.663 17.001L19.443 16.847C19.443 16.946 19.443 17.034 19.388 17.122C19.311 17.617 19.146 18.0922 18.904 18.53C18.6897 18.9221 18.3875 19.2593 18.0211 19.515C17.6546 19.7707 17.234 19.9381 16.792 20.004C16.2106 20.1178 15.6101 20.0876 15.043 19.916C14.5726 19.7862 14.1441 19.536 13.8 19.19C13.4228 18.8062 13.1863 18.3061 13.129 17.771C13.0739 17.3181 13.1479 16.8589 13.3426 16.4463C13.5372 16.0337 13.8445 15.6845 14.229 15.439C14.629 15.1738 15.0777 14.9906 15.549 14.9C16.0154 14.823 16.4847 14.79 16.957 14.801C17.3254 14.8109 17.6928 14.844 18.057 14.9H18.123C18.0743 14.599 17.9738 14.3087 17.826 14.042C17.7196 13.864 17.5778 13.7097 17.4094 13.5886C17.241 13.4675 17.0496 13.3822 16.847 13.338C16.3631 13.1895 15.8459 13.1895 15.362 13.338C15.0133 13.4613 14.7102 13.6876 14.493 13.987V14.064L13.393 13.305V13.228C13.8514 12.5636 14.5491 12.1024 15.34 11.941C16.0145 11.7939 16.7157 11.8242 17.375 12.029C17.7447 12.1422 18.087 12.3306 18.3804 12.5823C18.6738 12.8341 18.912 13.1438 19.08 13.492C19.2736 13.8869 19.4045 14.3104 19.465 14.746C19.4958 14.9353 19.5142 15.1263 19.52 15.318L19.85 15.472C20.3659 15.746 20.8221 16.1199 21.192 16.572C21.5726 17.0417 21.8223 17.6027 21.918 18.2C21.9961 18.5608 22.0225 18.9315 21.995 19.3C21.9388 20.2158 21.5788 21.0867 20.972 21.775C20.205 22.6818 19.1616 23.3117 18.002 23.568C17.4916 23.6762 16.9725 23.7388 16.451 23.755C15.9773 23.7749 15.5027 23.7565 15.032 23.7C14.2684 23.6108 13.5249 23.3952 12.832 23.062C11.939 22.6095 11.1804 21.9305 10.632 21.093C10.2267 20.4607 9.91889 19.771 9.719 19.047C9.5716 18.5014 9.46527 17.9477 9.4 17.386V16C9.4 15.538 9.4 15.076 9.477 14.614C9.52228 14.0914 9.60686 13.5729 9.73 13.063C9.89786 12.4206 10.1572 11.8056 10.5 11.237C11.1879 10.0117 12.3106 9.08926 13.646 8.652C14.1253 8.48909 14.6188 8.37124 15.12 8.3C15.7486 8.22841 16.3834 8.22841 17.012 8.3C17.7715 8.37023 18.5145 8.56342 19.212 8.872C20.2181 9.31579 21.074 10.0418 21.676 10.962C22.0988 11.6258 22.4109 12.354 22.6 13.118L21.302 13.47V13.382C21.1555 12.8611 20.941 12.3618 20.664 11.897C20.1 10.9807 19.2255 10.2976 18.2 9.972C17.6601 9.78881 17.0974 9.68145 16.528 9.653C16.107 9.6183 15.684 9.6183 15.263 9.653C14.6133 9.71662 13.9801 9.89541 13.393 10.181C12.6343 10.5772 12.0102 11.1898 11.6 11.941C11.3165 12.4558 11.1055 13.0074 10.973 13.58C10.8574 14.0459 10.7802 14.5205 10.742 14.999C10.7133 15.4569 10.7133 15.9161 10.742 16.374C10.7479 17.1879 10.8588 17.9975 11.072 18.783Z" fill="black"/>
</svg>
