<svg width="32" height="32" viewBox="0 0 32 32" fill="none" xmlns="http://www.w3.org/2000/svg">
<path fill-rule="evenodd" clip-rule="evenodd" d="M16 0C16.3536 0 16.6928 0.140476 16.9428 0.390524C17.1929 0.640573 17.3333 0.979711 17.3333 1.33333V2.66667C17.3333 3.02029 17.1929 3.35943 16.9428 3.60948C16.6928 3.85952 16.3536 4 16 4C15.6464 4 15.3072 3.85952 15.0572 3.60948C14.8071 3.35943 14.6667 3.02029 14.6667 2.66667V1.33333C14.6667 0.979711 14.8071 0.640573 15.0572 0.390524C15.3072 0.140476 15.6464 0 16 0ZM15.036 6.40267C15.0938 6.19111 15.2195 6.00441 15.3938 5.87132C15.5681 5.73823 15.7814 5.66614 16.0007 5.66614C16.22 5.66614 16.4332 5.73823 16.6075 5.87132C16.7818 6.00441 16.9076 6.19111 16.9653 6.40267C17.6693 8.98267 18.4613 10.6467 19.6973 11.9013C20.94 13.164 22.7307 14.112 25.64 15.048C25.8415 15.1128 26.0173 15.2399 26.142 15.411C26.2667 15.5821 26.3339 15.7883 26.3339 16C26.3339 16.2117 26.2667 16.4179 26.142 16.589C26.0173 16.7601 25.8415 16.8872 25.64 16.952C22.7307 17.888 20.94 18.836 19.6973 20.0987C18.4613 21.352 17.6693 23.0173 16.964 25.5973C16.9058 25.8083 16.78 25.9944 16.6058 26.127C16.4317 26.2596 16.2189 26.3314 16 26.3314C15.7811 26.3314 15.5683 26.2596 15.3942 26.127C15.22 25.9944 15.0942 25.8083 15.036 25.5973C14.3307 23.0173 13.5387 21.3533 12.3027 20.0987C11.06 18.836 9.26933 17.888 6.36 16.952C6.15846 16.8872 5.98268 16.7601 5.85798 16.589C5.73328 16.4179 5.6661 16.2117 5.6661 16C5.6661 15.7883 5.73328 15.5821 5.85798 15.411C5.98268 15.2399 6.15846 15.1128 6.36 15.048C9.26933 14.112 11.06 13.164 12.3027 11.9013C13.5387 10.648 14.3307 8.98267 15.036 6.40267ZM17.3333 29.3333C17.3333 28.9797 17.1929 28.6406 16.9428 28.3905C16.6928 28.1405 16.3536 28 16 28C15.6464 28 15.3072 28.1405 15.0572 28.3905C14.8071 28.6406 14.6667 28.9797 14.6667 29.3333V30.6667C14.6667 31.0203 14.8071 31.3594 15.0572 31.6095C15.3072 31.8595 15.6464 32 16 32C16.3536 32 16.6928 31.8595 16.9428 31.6095C17.1929 31.3594 17.3333 31.0203 17.3333 30.6667V29.3333ZM32 16C32 16.3536 31.8595 16.6928 31.6095 16.9428C31.3594 17.1929 31.0203 17.3333 30.6667 17.3333H29.3333C28.9797 17.3333 28.6406 17.1929 28.3905 16.9428C28.1405 16.6928 28 16.3536 28 16C28 15.6464 28.1405 15.3072 28.3905 15.0572C28.6406 14.8071 28.9797 14.6667 29.3333 14.6667H30.6667C31.0203 14.6667 31.3594 14.8071 31.6095 15.0572C31.8595 15.3072 32 15.6464 32 16ZM2.66667 17.3333C3.02029 17.3333 3.35943 17.1929 3.60948 16.9428C3.85952 16.6928 4 16.3536 4 16C4 15.6464 3.85952 15.3072 3.60948 15.0572C3.35943 14.8071 3.02029 14.6667 2.66667 14.6667H1.33333C0.979711 14.6667 0.640573 14.8071 0.390524 15.0572C0.140476 15.3072 0 15.6464 0 16C0 16.3536 0.140476 16.6928 0.390524 16.9428C0.640573 17.1929 0.979711 17.3333 1.33333 17.3333H2.66667ZM27.6093 4.39067C27.8593 4.6407 27.9997 4.97978 27.9997 5.33333C27.9997 5.68689 27.8593 6.02596 27.6093 6.276L23.6093 10.276C23.4863 10.4033 23.3392 10.5049 23.1765 10.5748C23.0139 10.6447 22.8389 10.6815 22.6619 10.683C22.4848 10.6845 22.3093 10.6508 22.1454 10.5838C21.9815 10.5167 21.8327 10.4177 21.7075 10.2925C21.5823 10.1673 21.4833 10.0185 21.4162 9.85461C21.3492 9.69074 21.3155 9.51517 21.317 9.33813C21.3185 9.16109 21.3553 8.98613 21.4252 8.82346C21.4951 8.66079 21.5967 8.51366 21.724 8.39067L25.724 4.39067C25.974 4.14071 26.3131 4.00029 26.6667 4.00029C27.0202 4.00029 27.3593 4.14071 27.6093 4.39067ZM4.39067 6.276C4.14779 6.02453 4.0134 5.68773 4.01643 5.33813C4.01947 4.98854 4.1597 4.65412 4.40691 4.40691C4.65412 4.1597 4.98854 4.01947 5.33813 4.01643C5.68773 4.0134 6.02453 4.14779 6.276 4.39067L10.276 8.39067C10.5189 8.64214 10.6533 8.97894 10.6502 9.32854C10.6472 9.67813 10.507 10.0125 10.2598 10.2598C10.0125 10.507 9.67813 10.6472 9.32854 10.6502C8.97894 10.6533 8.64214 10.5189 8.39067 10.276L4.39067 6.276ZM4.39067 27.6093C4.14071 27.3593 4.00029 27.0202 4.00029 26.6667C4.00029 26.3131 4.14071 25.974 4.39067 25.724L8.39067 21.724C8.64214 21.4811 8.97894 21.3467 9.32854 21.3498C9.67813 21.3528 10.0125 21.493 10.2598 21.7402C10.507 21.9875 10.6472 22.3219 10.6502 22.6715C10.6533 23.0211 10.5189 23.3579 10.276 23.6093L6.276 27.6093C6.02596 27.8593 5.68689 27.9997 5.33333 27.9997C4.97978 27.9997 4.6407 27.8593 4.39067 27.6093ZM27.6093 25.724C27.8522 25.9755 27.9866 26.3123 27.9836 26.6619C27.9805 27.0115 27.8403 27.3459 27.5931 27.5931C27.3459 27.8403 27.0115 27.9805 26.6619 27.9836C26.3123 27.9866 25.9755 27.8522 25.724 27.6093L21.724 23.6093C21.4811 23.3579 21.3467 23.0211 21.3498 22.6715C21.3528 22.3219 21.493 21.9875 21.7402 21.7402C21.9875 21.493 22.3219 21.3528 22.6715 21.3498C23.0211 21.3467 23.3579 21.4811 23.6093 21.724L27.6093 25.724Z" fill="#1A1A1A"/>
</svg>
