<svg width="134" height="152" viewBox="0 0 134 152" fill="none" xmlns="http://www.w3.org/2000/svg">
<g filter="url(#filter0_d_86_1148)">
<path d="M81.6667 2H52.8667C48.4484 2 44.8667 5.58172 44.8667 10V13.2C44.8667 17.6183 48.4484 21.2 52.8667 21.2H81.6667C86.085 21.2 89.6667 17.6183 89.6667 13.2V10C89.6667 5.58172 86.085 2 81.6667 2Z" fill="#00E5A0"/>
<path d="M81.6667 2H52.8667C48.4484 2 44.8667 5.58172 44.8667 10V13.2C44.8667 17.6183 48.4484 21.2 52.8667 21.2H81.6667C86.085 21.2 89.6667 17.6183 89.6667 13.2V10C89.6667 5.58172 86.085 2 81.6667 2Z" stroke="white" stroke-width="4"/>
</g>
<g filter="url(#filter1_d_86_1148)">
<path d="M96.0667 21.2H38.4667C26.0955 21.2 16.0667 31.2288 16.0667 43.6V123.6C16.0667 135.971 26.0955 146 38.4667 146H96.0667C108.438 146 118.467 135.971 118.467 123.6V43.6C118.467 31.2288 108.438 21.2 96.0667 21.2Z" fill="#00E5A0"/>
<path d="M96.0667 21.2H38.4667C26.0955 21.2 16.0667 31.2288 16.0667 43.6V123.6C16.0667 135.971 26.0955 146 38.4667 146H96.0667C108.438 146 118.467 135.971 118.467 123.6V43.6C118.467 31.2288 108.438 21.2 96.0667 21.2Z" stroke="white" stroke-width="4"/>
</g>
<path d="M51.2665 72.4C56.5684 72.4 60.8665 68.1019 60.8665 62.8C60.8665 57.498 56.5684 53.2 51.2665 53.2C45.9646 53.2 41.6665 57.498 41.6665 62.8C41.6665 68.1019 45.9646 72.4 51.2665 72.4Z" fill="#1A1A1A"/>
<path d="M54.4666 62C56.6757 62 58.4666 60.2091 58.4666 58C58.4666 55.7909 56.6757 54 54.4666 54C52.2574 54 50.4666 55.7909 50.4666 58C50.4666 60.2091 52.2574 62 54.4666 62Z" fill="white"/>
<path d="M83.2665 72.4C88.5684 72.4 92.8665 68.1019 92.8665 62.8C92.8665 57.498 88.5684 53.2 83.2665 53.2C77.9646 53.2 73.6665 57.498 73.6665 62.8C73.6665 68.1019 77.9646 72.4 83.2665 72.4Z" fill="#1A1A1A"/>
<path d="M86.4666 62C88.6757 62 90.4666 60.2091 90.4666 58C90.4666 55.7909 88.6757 54 86.4666 54C84.2574 54 82.4666 55.7909 82.4666 58C82.4666 60.2091 84.2574 62 86.4666 62Z" fill="white"/>
<path d="M51.2666 85.2C61.9333 95.8666 72.5999 95.8666 83.2666 85.2" stroke="#1A1A1A" stroke-width="4" stroke-linecap="round"/>
<path d="M16.0666 59.6001C5.39996 48.9334 4.33329 38.2668 12.8666 27.6001" stroke="white" stroke-width="4" stroke-linecap="round"/>
<path d="M12.8667 30.8C15.5176 30.8 17.6667 28.6509 17.6667 26C17.6667 23.349 15.5176 21.2 12.8667 21.2C10.2157 21.2 8.06665 23.349 8.06665 26C8.06665 28.6509 10.2157 30.8 12.8667 30.8Z" fill="white"/>
<path d="M118.467 59.6001C129.133 48.9334 130.2 38.2668 121.667 27.6001" stroke="white" stroke-width="4" stroke-linecap="round"/>
<path d="M121.667 30.8C124.318 30.8 126.467 28.6509 126.467 26C126.467 23.349 124.318 21.2 121.667 21.2C119.016 21.2 116.867 23.349 116.867 26C116.867 28.6509 119.016 30.8 121.667 30.8Z" fill="white"/>
<path d="M40.5777 84.8C44.1124 84.8 46.9777 81.9346 46.9777 78.4C46.9777 74.8654 44.1124 72 40.5777 72C37.0431 72 34.1777 74.8654 34.1777 78.4C34.1777 81.9346 37.0431 84.8 40.5777 84.8Z" fill="#FF2D78" fill-opacity="0.2"/>
<path d="M94.3778 84.8C97.9124 84.8 100.778 81.9346 100.778 78.4C100.778 74.8654 97.9124 72 94.3778 72C90.8432 72 87.9778 74.8654 87.9778 78.4C87.9778 81.9346 90.8432 84.8 94.3778 84.8Z" fill="#FF2D78" fill-opacity="0.2"/>
<path d="M70.1777 104L63.1777 122H77.1777L70.1777 140" stroke="#FFD60A" stroke-width="5" stroke-linecap="round" stroke-linejoin="round"/>
<defs>
<filter id="filter0_d_86_1148" x="42.8667" y="0" width="52.8" height="27.2" filterUnits="userSpaceOnUse" color-interpolation-filters="sRGB">
<feFlood flood-opacity="0" result="BackgroundImageFix"/>
<feColorMatrix in="SourceAlpha" type="matrix" values="0 0 0 0 0 0 0 0 0 0 0 0 0 0 0 0 0 0 127 0" result="hardAlpha"/>
<feOffset dx="4" dy="4"/>
<feComposite in2="hardAlpha" operator="out"/>
<feColorMatrix type="matrix" values="0 0 0 0 1 0 0 0 0 1 0 0 0 0 1 0 0 0 1 0"/>
<feBlend mode="normal" in2="BackgroundImageFix" result="effect1_dropShadow_86_1148"/>
<feBlend mode="normal" in="SourceGraphic" in2="effect1_dropShadow_86_1148" result="shape"/>
</filter>
<filter id="filter1_d_86_1148" x="14.0667" y="19.2" width="110.4" height="132.8" filterUnits="userSpaceOnUse" color-interpolation-filters="sRGB">
<feFlood flood-opacity="0" result="BackgroundImageFix"/>
<feColorMatrix in="SourceAlpha" type="matrix" values="0 0 0 0 0 0 0 0 0 0 0 0 0 0 0 0 0 0 127 0" result="hardAlpha"/>
<feOffset dx="4" dy="4"/>
<feComposite in2="hardAlpha" operator="out"/>
<feColorMatrix type="matrix" values="0 0 0 0 1 0 0 0 0 1 0 0 0 0 1 0 0 0 1 0"/>
<feBlend mode="normal" in2="BackgroundImageFix" result="effect1_dropShadow_86_1148"/>
<feBlend mode="normal" in="SourceGraphic" in2="effect1_dropShadow_86_1148" result="shape"/>
</filter>
</defs>
</svg>
