<svg width="24" height="24" viewBox="0 0 24 24" fill="none" xmlns="http://www.w3.org/2000/svg">
<path fill-rule="evenodd" clip-rule="evenodd" d="M2.436 5.13145C2 5.62745 2 6.47944 2 8.18145V17.5754C2 18.7814 2 19.3844 2.315 19.8384C2.629 20.2924 3.179 20.4834 4.279 20.8644L5.573 21.3134C6.274 21.5564 6.813 21.7434 7.266 21.8634C7.562 21.9424 7.833 21.7104 7.833 21.4044V6.25445C7.82589 6.0047 7.65133 5.79113 7.408 5.73445C7.019 5.63545 6.551 5.47345 5.91 5.25145C4.357 4.71245 3.58 4.44345 2.99 4.71645C2.77883 4.81532 2.59025 4.95658 2.436 5.13145Z" fill="#767373"/>
<path fill-rule="evenodd" clip-rule="evenodd" d="M12.62 3.46545L11.084 4.53045C10.529 4.91545 10.121 5.19845 9.774 5.39945C9.60833 5.49316 9.50424 5.66716 9.5 5.85745V20.9044C9.5 21.2744 9.884 21.5064 10.196 21.3064C10.531 21.0924 10.915 20.8264 11.38 20.5044L12.916 19.4394C13.471 19.0544 13.879 18.7714 14.226 18.5704C14.3917 18.4767 14.4958 18.3027 14.5 18.1124V3.06445C14.5 2.69345 14.116 2.46245 13.804 2.66145C13.469 2.87645 13.085 3.14245 12.62 3.46545Z" fill="#767373"/>
<path fill-rule="evenodd" clip-rule="evenodd" d="M19.72 3.10445L18.427 2.65645C17.726 2.41345 17.187 2.22645 16.734 2.10645C16.438 2.02745 16.167 2.25945 16.167 2.56545V17.7154C16.1741 17.9652 16.3487 18.1788 16.592 18.2354C16.981 18.3344 17.449 18.4954 18.09 18.7184C19.643 19.2574 20.42 19.5264 21.01 19.2534C21.2212 19.1546 21.4097 19.0133 21.564 18.8384C22 18.3424 22 17.4904 22 15.7884V6.39445C22 5.18845 22 4.58445 21.685 4.13145C21.371 3.67745 20.821 3.48645 19.721 3.10545" fill="#767373"/>
</svg>
