<svg width="24" height="24" viewBox="0 0 24 24" fill="none" xmlns="http://www.w3.org/2000/svg">
<path fill-rule="evenodd" clip-rule="evenodd" d="M22 8.16192V8.23492C22 9.09492 22 9.52591 21.793 9.87791C21.586 10.2299 21.209 10.4389 20.457 10.8579L19.664 11.2979C20.21 9.44991 20.393 7.46392 20.46 5.76592L20.47 5.54492L20.472 5.49292C21.123 5.71892 21.489 5.88792 21.717 6.20392C22 6.59692 22 7.11892 22 8.16192Z" fill="#767373"/>
<path fill-rule="evenodd" clip-rule="evenodd" d="M2 8.16192V8.23492C2 9.09492 2 9.52591 2.207 9.87791C2.414 10.2299 2.791 10.4389 3.543 10.8579L4.337 11.2979C3.79 9.44991 3.607 7.46392 3.54 5.76592L3.53 5.54492L3.529 5.49292C2.877 5.71892 2.511 5.88792 2.283 6.20392C2 6.59692 2 7.11992 2 8.16192Z" fill="#767373"/>
<path fill-rule="evenodd" clip-rule="evenodd" d="M11.9738 1.99976C13.7578 1.99976 15.2268 2.15676 16.3508 2.34676C17.4898 2.53876 18.0588 2.63476 18.5348 3.22077C19.0108 3.80678 18.9848 4.43978 18.9348 5.7058C18.7628 10.0549 17.8248 15.4859 12.7238 15.9659V19.5H14.1538C14.6303 19.5002 15.0404 19.8367 15.1338 20.304L15.3238 21.25H17.9738C18.388 21.25 18.7238 21.5858 18.7238 22C18.7238 22.4142 18.388 22.75 17.9738 22.75H5.97368C5.55946 22.75 5.22367 22.4142 5.22367 22C5.22367 21.5858 5.55946 21.25 5.97368 21.25H8.62371L8.81372 20.304C8.90711 19.8367 9.31722 19.5002 9.79373 19.5H11.2237V15.9659C6.12368 15.4859 5.18567 10.0539 5.01367 5.7058C4.96267 4.43978 4.93767 3.80578 5.41368 3.22077C5.88868 2.63476 6.45769 2.53876 7.5967 2.34676C9.04355 2.10975 10.5076 1.99368 11.9738 1.99976ZM12.9258 6.19881L12.8278 6.0228C12.4478 5.3398 12.2578 4.99979 11.9738 4.99979C11.6898 4.99979 11.4997 5.3398 11.1197 6.0228L11.0217 6.19881C10.9137 6.39281 10.8597 6.48881 10.7757 6.55281C10.6907 6.61681 10.5857 6.64081 10.3757 6.68781L10.1857 6.73181C9.44772 6.89881 9.07872 6.98181 8.99072 7.26382C8.90272 7.54582 9.15472 7.84082 9.65773 8.42883L9.78773 8.58083C9.93073 8.74784 10.0027 8.83084 10.0347 8.93484C10.0667 9.03884 10.0557 9.14984 10.0347 9.37284L10.0147 9.57584C9.93873 10.3609 9.90073 10.7539 10.1297 10.9279C10.3597 11.1019 10.7057 10.9429 11.3967 10.6249L11.5747 10.5429C11.7718 10.4529 11.8698 10.4079 11.9738 10.4079C12.0778 10.4079 12.1758 10.4529 12.3728 10.5429L12.5508 10.6249C13.2418 10.9439 13.5878 11.1019 13.8178 10.9279C14.0478 10.7539 14.0088 10.3609 13.9328 9.57584L13.9128 9.37284C13.8918 9.14984 13.8808 9.03884 13.9128 8.93484C13.9448 8.83084 14.0168 8.74784 14.1598 8.58083L14.2898 8.42883C14.7928 7.84082 15.0448 7.54682 14.9568 7.26382C14.8688 6.98181 14.4998 6.89881 13.7618 6.73181L13.5718 6.68781C13.3618 6.64081 13.2568 6.61781 13.1718 6.55281C13.0878 6.48881 13.0338 6.39281 12.9258 6.19881Z" fill="#767373"/>
</svg>
